<svg xmlns="http://www.w3.org/2000/svg" width="28.954" height="29.514" viewBox="0 0 28.954 29.514"><path d="M32.44,15.865l-.149-.632H18.559v5.812h8.2c-.852,4.045-4.8,6.174-8.033,6.174a9.607,9.607,0,0,1-6.465-2.576,9.229,9.229,0,0,1-2.753-6.515,9.519,9.519,0,0,1,2.7-6.507,9.2,9.2,0,0,1,6.422-2.512A8.377,8.377,0,0,1,24.1,11.238l4.13-4.109A14.613,14.613,0,0,0,18.5,3.382h0A15.041,15.041,0,0,0,7.857,7.711a14.98,14.98,0,0,0-4.2,10.425A14.829,14.829,0,0,0,7.694,28.39,15.4,15.4,0,0,0,18.8,32.9,13.7,13.7,0,0,0,28.778,28.7,14.732,14.732,0,0,0,32.61,18.5,16.992,16.992,0,0,0,32.44,15.865Z" transform="translate(-3.656 -3.382)" fill="#393939"/></svg>